<?xml version="1.0" standalone="no"?>
<!DOCTYPE svg PUBLIC "-//W3C//DTD SVG 20010904//EN"
 "http://www.w3.org/TR/2001/REC-SVG-20010904/DTD/svg10.dtd">
<svg version="1.0" xmlns="http://www.w3.org/2000/svg"
 width="150.000000pt" height="40.000000pt" viewBox="0 0 150.000000 40.000000"
 preserveAspectRatio="xMidYMid meet">

<g transform="translate(0.000000,40.000000) scale(0.100000,-0.100000)"
fill="#000000" stroke="none">
<path d="M13 299 c25 -15 25 -183 0 -198 -14 -8 -7 -10 32 -10 44 0 48 1 33
13 -24 18 -25 86 -2 86 9 0 38 -23 64 -51 28 -30 53 -48 60 -44 7 4 -3 22 -30
51 l-41 45 26 21 c33 26 31 67 -5 85 -31 16 -164 18 -137 2z m121 -18 c24 -26
17 -53 -17 -69 -43 -21 -57 -10 -57 43 0 43 1 45 28 45 16 0 37 -9 46 -19z"/>
</g>
</svg>
