<?xml version="1.0" encoding="UTF-8" standalone="no"?>
<svg
   version="1.0"
   width="150.000000pt"
   height="40.000000pt"
   viewBox="0 0 150.000000 40.000000"
   preserveAspectRatio="xMidYMid meet"
   id="svg18"
   sodipodi:docname="270ffe9834f37ed38bb7c10fd5b3ac31.svg"
   xmlns:inkscape="http://www.inkscape.org/namespaces/inkscape"
   xmlns:sodipodi="http://sodipodi.sourceforge.net/DTD/sodipodi-0.dtd"
   xmlns="http://www.w3.org/2000/svg"
   xmlns:svg="http://www.w3.org/2000/svg">
  <defs
     id="defs22" />
  <sodipodi:namedview
     id="namedview20"
     pagecolor="#ffffff"
     bordercolor="#666666"
     borderopacity="1.0"
     inkscape:pageshadow="2"
     inkscape:pageopacity="0.0"
     inkscape:pagecheckerboard="0"
     inkscape:document-units="pt" />
  <g
     transform="translate(0.000000,40.000000) scale(0.100000,-0.100000)"
     fill="#000000"
     stroke="none"
     id="g16">
    <path
       d="M13 299 c25 -15 25 -183 0 -198 -14 -8 -7 -10 31 -11 47 0 48 1 33 18 -22 25 -23 82 -1 82 9 0 38 -23 64 -51 61 -65 88 -57 30 9 l-41 46 26 14 c35 18 32 70 -5 89 -31 16 -164 18 -137 2z m121 -18 c24 -26 17 -53 -17 -69 -41 -20 -57 -9 -57 36 0 21 3 42 7 45 13 14 50 7 67 -12z"
       id="path2" />
    <path
       d="M248 297 c16 -19 18 -173 2 -192 -11 -13 -6 -15 36 -15 38 1 45 3 32 11 -26 15 -26 183 0 198 13 8 6 10 -32 11 -38 0 -46 -3 -38 -13z"
       id="path4" />
    <path
       d="M380 292 c-34 -28 -21 -65 34 -97 54 -32 68 -48 60 -68 -14 -39 -75 -31 -99 11 l-14 27 -1 -31 c0 -25 5 -33 23 -38 57 -15 114 4 123 41 8 29 -14 55 -73 90 -44 26 -56 56 -27 67 29 11 45 6 69 -20 24 -26 25 -26 25 -6 0 42 -79 57 -120 24z"
       id="path6" />
    <path
       d="M553 292 c24 -26 24 -158 0 -184 -15 -17 -14 -18 33 -18 43 1 47 2 32 14 -12 9 -18 27 -18 55 l0 41 55 0 55 0 0 -43 c0 -24 -5 -48 -12 -55 -9 -9 -2 -12 32 -12 34 0 41 3 32 12 -8 8 -12 45 -12 100 0 72 3 89 18 97 13 8 6 10 -32 11 -39 0 -47 -3 -38 -12 7 -7 12 -29 12 -50 l0 -38 -55 0 -55 0 0 40 c0 27 6 42 18 49 13 8 6 10 -32 11 -47 0 -48 -1 -33 -18z"
       id="path8" />
    <path
       d="M880 297 c0 -23 -71 -187 -81 -187 -5 0 -9 -4 -9 -10 0 -5 16 -10 37 -10 35 0 35 1 19 19 -14 15 -15 23 -5 45 11 24 18 27 53 24 35 -3 42 -7 51 -32 7 -22 7 -30 -2 -33 -27 -9 -11 -23 27 -23 36 0 55 13 30 22 -5 2 -27 46 -49 98 -23 55 -46 96 -55 98 -9 2 -16 -3 -16 -11z m28 -60 c16 -46 16 -47 -18 -47 -34 0 -34 1 -18 47 15 41 21 41 36 0z"
       id="path10" />
    <path
       d="M1043 292 c24 -26 24 -158 0 -184 -15 -17 -14 -18 45 -18 76 0 109 12 124 46 11 24 10 29 -14 49 -26 22 -26 23 -6 39 25 22 20 57 -12 73 -14 7 -54 13 -89 13 -61 0 -63 -1 -48 -18z m108 -2 c21 -12 25 -50 7 -68 -7 -7 -25 -12 -40 -12 -27 0 -28 2 -28 45 0 39 3 45 21 45 11 0 29 -5 40 -10z m13 -106 c26 -25 20 -63 -10 -75 -46 -17 -64 -4 -64 47 0 42 1 44 29 44 16 0 37 -7 45 -16z"
       id="path12" />
    <path
       d="M1258 298 c16 -16 16 -180 0 -196 -9 -9 -2 -12 32 -12 34 0 41 3 32 12 -7 7 -12 31 -12 55 l0 43 55 0 55 0 0 -41 c0 -28 -6 -46 -17 -55 -16 -12 -12 -13 31 -14 47 0 48 1 33 18 -25 27 -24 169 1 188 15 12 11 13 -33 13 -39 0 -46 -2 -32 -10 11 -7 17 -22 17 -49 l0 -40 -55 0 -55 0 0 38 c0 21 5 43 12 50 9 9 2 12 -32 12 -34 0 -41 -3 -32 -12z"
       id="path14" />
  </g>
</svg>
