<?xml version="1.0" encoding="UTF-8" standalone="no"?>
<svg
   version="1.0"
   width="150.000000pt"
   height="40.000000pt"
   viewBox="0 0 150.000000 40.000000"
   preserveAspectRatio="xMidYMid meet"
   id="svg6"
   sodipodi:docname="42589015045c9372d5d20dd313c091f1.svg"
   xmlns:inkscape="http://www.inkscape.org/namespaces/inkscape"
   xmlns:sodipodi="http://sodipodi.sourceforge.net/DTD/sodipodi-0.dtd"
   xmlns="http://www.w3.org/2000/svg"
   xmlns:svg="http://www.w3.org/2000/svg">
  <defs
     id="defs10" />
  <sodipodi:namedview
     id="namedview8"
     pagecolor="#ffffff"
     bordercolor="#666666"
     borderopacity="1.0"
     inkscape:pageshadow="2"
     inkscape:pageopacity="0.0"
     inkscape:pagecheckerboard="0"
     inkscape:document-units="pt" />
  <g
     transform="translate(0.000000,40.000000) scale(0.100000,-0.100000)"
     fill="#000000"
     stroke="none"
     id="g4">
    <path
       d="M13 299 c25 -15 25 -183 0 -198 -14 -8 -7 -10 32 -10 44 0 48 1 33 13 -24 18 -25 86 -2 86 9 0 38 -23 64 -51 28 -30 53 -48 60 -44 7 4 -3 22 -30 51 l-41 45 26 21 c33 26 31 67 -5 85 -31 16 -164 18 -137 2z m121 -18 c24 -26 17 -53 -17 -69 -43 -21 -57 -10 -57 43 0 43 1 45 28 45 16 0 37 -9 46 -19z"
       id="path2" />
  </g>
</svg>
